<?xml version="1.0" encoding="utf-8"?>
<!-- Generator: Adobe Illustrator 23.0.6, SVG Export Plug-In . SVG Version: 6.00 Build 0)  -->
<svg version="1.1" id="Layer_1" xmlns="http://www.w3.org/2000/svg" xmlns:xlink="http://www.w3.org/1999/xlink" x="0px" y="0px"
	 viewBox="0 0 850.39 850.39" style="enable-background:new 0 0 850.39 850.39;" xml:space="preserve">
<style type="text/css">
	.st0{fill:#FFFFFF;}
	.st1{fill:#36B2B2;}
	.st2{fill:#333333;}
	.st3{fill:#EBEBEB;}
	.st4{fill:#FF6666;}
</style>
<g>
	<g>
		<polygon class="st0" points="670.42,425.09 607.82,424.05 602.98,551.13 615.4,544.38 737.08,544.17 737.08,505.73 734.9,491.5 
			725.74,463.03 713.11,445.52 686.38,429.83 		"/>
		<path class="st0" d="M603.85,307.77c0,0-3.18,61.13,9.64,74.62c12.81,13.48,28.08,42.25,45.52,42.7
			c17.45,0.44,41.26-12.09,47.54-14.23c6.28-2.14,25.39-37.95,25.39-37.95l5.14-33.29v-31.84H603.85z"/>
		<path class="st1" d="M764.34,305.15H574.98c-5.1,0-9.23-4.13-9.23-9.23v0c0-5.1,4.13-9.23,9.23-9.23h189.36
			c5.1,0,9.23,4.13,9.23,9.23v0C773.57,301.02,769.44,305.15,764.34,305.15z"/>
		<polygon class="st1" points="603.11,562.69 599.18,542.41 759.03,544.45 773.57,548.42 773.57,557.91 752.93,563.54 		"/>
		<g>
			<g>
				<circle class="st1" cx="622.98" cy="529.45" r="4.74"/>
				<circle class="st1" cx="641.95" cy="529.45" r="4.74"/>
				<circle class="st1" cx="660.93" cy="529.45" r="4.74"/>
				<circle class="st1" cx="679.91" cy="529.45" r="4.74"/>
				<circle class="st1" cx="698.88" cy="529.45" r="4.74"/>
				<circle class="st1" cx="717.86" cy="529.45" r="4.74"/>
				<circle class="st1" cx="632.47" cy="519.96" r="4.74"/>
				<circle class="st1" cx="651.44" cy="519.96" r="4.74"/>
				<circle class="st1" cx="670.42" cy="439.31" r="4.74"/>
				<circle class="st1" cx="641.95" cy="387.13" r="4.74"/>
				<circle class="st1" cx="660.93" cy="387.13" r="4.74"/>
				<circle class="st1" cx="679.91" cy="387.13" r="4.74"/>
				<circle class="st1" cx="698.88" cy="387.13" r="4.74"/>
				<circle class="st1" cx="689.39" cy="377.64" r="4.74"/>
				<circle class="st1" cx="698.88" cy="368.16" r="4.74"/>
				<circle class="st1" cx="651.44" cy="377.64" r="4.74"/>
				<circle class="st1" cx="670.42" cy="377.64" r="4.74"/>
				<circle class="st1" cx="641.95" cy="368.16" r="4.74"/>
				<circle class="st1" cx="651.44" cy="396.62" r="4.74"/>
				<circle class="st1" cx="660.93" cy="406.11" r="4.74"/>
				<circle class="st1" cx="679.91" cy="406.11" r="4.74"/>
				<circle class="st1" cx="670.42" cy="396.62" r="4.74"/>
				<circle class="st1" cx="689.39" cy="396.62" r="4.74"/>
				<circle class="st1" cx="670.42" cy="453.55" r="4.74"/>
				<circle class="st1" cx="670.42" cy="467.78" r="4.74"/>
				<circle class="st1" cx="670.42" cy="482.01" r="4.74"/>
				<circle class="st1" cx="670.42" cy="496.24" r="4.74"/>
				<circle class="st1" cx="670.42" cy="510.47" r="4.74"/>
				<circle class="st1" cx="689.39" cy="519.96" r="4.74"/>
				<circle class="st1" cx="708.37" cy="519.96" r="4.74"/>
			</g>
			<g>
				<path class="st2" d="M732.09,538.94c0-0.4-0.05-0.78-0.15-1.15C732,538.19,732.05,538.58,732.09,538.94z"/>
				<path class="st2" d="M765.3,538.94h-23.72v-28.46c0-36.01-19.67-68.5-50.83-85.39c31.15-16.89,50.83-49.38,50.83-85.39v-28.46
					h23.72c7.85,0,14.23-6.39,14.23-14.23c0-7.85-6.39-14.23-14.23-14.23H575.54c-7.85,0-14.23,6.39-14.23,14.23
					c0,7.85,6.39,14.23,14.23,14.23h23.72v28.46c0,36.01,19.67,68.5,50.83,85.39c-31.15,16.89-50.83,49.38-50.83,85.39v28.46h-23.72
					c-7.85,0-14.23,6.39-14.23,14.23s6.39,14.23,14.23,14.23H765.3c7.85,0,14.23-6.39,14.23-14.23S773.14,538.94,765.3,538.94z
					 M575.54,301.74c-2.61,0-4.74-2.13-4.74-4.74c0-2.62,2.13-4.74,4.74-4.74H765.3c2.61,0,4.74,2.13,4.74,4.74
					c0,2.62-2.13,4.74-4.74,4.74H575.54z M608.75,339.69v-28.46h123.34v28.46c0,35.23-20.83,66.78-53.15,80.65h-17.05
					C629.58,406.48,608.75,374.93,608.75,339.69z M608.75,510.47c0-35.23,20.83-66.78,53.15-80.65h17.05
					c32.31,13.86,53.14,45.41,53.14,80.65v28.46H608.75V510.47z M765.3,557.91H575.54c-2.61,0-4.74-2.13-4.74-4.74
					s2.13-4.74,4.74-4.74H765.3c2.61,0,4.74,2.13,4.74,4.74S767.91,557.91,765.3,557.91z"/>
				<path class="st2" d="M608.75,538.94c0,0,0.04-0.41,0.13-1.11C608.8,538.19,608.75,538.56,608.75,538.94z"/>
				<path class="st1" d="M727.34,534.19c-2.62,0-4.74,2.13-4.74,4.74h9.49c-0.04-0.36-0.09-0.74-0.15-1.15
					C731.43,535.73,729.57,534.19,727.34,534.19z"/>
				<path class="st1" d="M613.49,534.19c-2.24,0-4.11,1.55-4.61,3.64c-0.09,0.7-0.13,1.11-0.13,1.11h9.49
					C618.23,536.32,616.11,534.19,613.49,534.19z"/>
				<path class="st1" d="M651.44,534.19c-2.62,0-4.74,2.13-4.74,4.74h9.49C656.19,536.32,654.06,534.19,651.44,534.19z"/>
				<path class="st1" d="M632.47,534.19c-2.62,0-4.74,2.13-4.74,4.74h9.49C637.21,536.32,635.08,534.19,632.47,534.19z"/>
				<path class="st1" d="M708.37,534.19c-2.62,0-4.74,2.13-4.74,4.74h9.49C713.11,536.32,710.99,534.19,708.37,534.19z"/>
				<path class="st1" d="M689.39,534.19c-2.62,0-4.74,2.13-4.74,4.74h9.49C694.14,536.32,692.01,534.19,689.39,534.19z"/>
				<path class="st1" d="M670.42,534.19c-2.62,0-4.74,2.13-4.74,4.74h9.49C675.16,536.32,673.04,534.19,670.42,534.19z"/>
			</g>
		</g>
		<g>
			<path class="st3" d="M608.88,512.26c13.75-6.95,24.04-19.67,27.64-34.94c0.57,0.06,1.15,0.09,1.74,0.09
				c8.95,0,16.21-7.19,16.21-16.07c0-8.87-7.26-16.07-16.21-16.07c-0.11,0-0.22,0.01-0.34,0.02v-4.98
				c0-29.08-23.79-52.66-53.14-52.66c-29.35,0-53.14,23.58-53.14,52.66v4.98c-0.11,0-0.22-0.02-0.34-0.02
				c-8.95,0-16.21,7.19-16.21,16.07c0,8.87,7.26,16.07,16.21,16.07c0.59,0,1.17-0.03,1.74-0.09c3.59,15.27,13.88,27.98,27.63,34.94
				c0,0-0.01,0-0.01-0.01v10.95c0,0.34,0.05,0.68,0.11,1.01h-8.66c-14.97,0-27.1,12.13-27.1,27.1v14.27h119.53v-14.27
				c0-14.97-12.13-27.1-27.1-27.1h-8.61c-0.02,0-0.04,0-0.06,0l0,0h-0.01c0.07-0.34,0.11-0.69,0.11-1.04V512.26z M586.88,517.94
				c-0.69,0.03-1.39,0.04-2.09,0.04c-0.7,0-1.39-0.02-2.09-0.04c0.69,0.03,1.39,0.04,2.09,0.04
				C585.49,517.98,586.18,517.96,586.88,517.94z M608.49,512.45c-0.44,0.22-0.89,0.43-1.33,0.64
				C607.6,512.89,608.05,512.67,608.49,512.45z M606.51,513.38c-0.46,0.2-0.92,0.4-1.38,0.59
				C605.59,513.78,606.05,513.59,606.51,513.38z M604.72,514.15c-0.57,0.23-1.15,0.45-1.74,0.66
				C603.57,514.59,604.15,514.38,604.72,514.15z M602.37,515.02c-0.47,0.16-0.94,0.32-1.41,0.47
				C601.43,515.34,601.9,515.18,602.37,515.02z M600.47,515.64c-0.61,0.19-1.22,0.36-1.83,0.52
				C599.26,516,599.87,515.83,600.47,515.64z M598.08,516.31c-0.49,0.13-0.99,0.24-1.48,0.36
				C597.09,516.56,597.59,516.44,598.08,516.31z M596.07,516.79c-0.64,0.14-1.28,0.26-1.92,0.38
				C594.79,517.05,595.43,516.92,596.07,516.79z M593.69,517.24c-0.53,0.09-1.07,0.17-1.61,0.24
				C592.62,517.41,593.15,517.33,593.69,517.24z M591.53,517.56c-0.67,0.08-1.34,0.16-2.01,0.22
				C590.2,517.71,590.87,517.64,591.53,517.56z M589.23,517.8c-0.6,0.05-1.19,0.09-1.8,0.12
				C588.03,517.88,588.63,517.84,589.23,517.8z M562.43,513.1c-0.48-0.22-0.96-0.45-1.43-0.68
				C561.47,512.65,561.95,512.88,562.43,513.1z M582.14,517.91c-0.59-0.03-1.18-0.07-1.77-0.11
				C580.95,517.84,581.54,517.88,582.14,517.91z M580.04,517.77c-0.67-0.06-1.33-0.13-2-0.22
				C578.71,517.64,579.37,517.71,580.04,517.77z M577.47,517.48c-0.52-0.07-1.04-0.15-1.55-0.23
				C576.44,517.33,576.95,517.41,577.47,517.48z M575.4,517.16c-0.63-0.11-1.26-0.23-1.88-0.37
				C574.14,516.92,574.77,517.05,575.4,517.16z M572.93,516.66c-0.47-0.11-0.93-0.22-1.39-0.33
				C572,516.44,572.46,516.55,572.93,516.66z M570.9,516.16c-0.6-0.16-1.19-0.33-1.78-0.51C569.71,515.83,570.3,516,570.9,516.16z
				 M568.55,515.47c-0.44-0.14-0.88-0.28-1.31-0.44C567.67,515.18,568.11,515.33,568.55,515.47z M566.56,514.79
				c-0.55-0.2-1.09-0.4-1.63-0.62C565.47,514.39,566.01,514.6,566.56,514.79z M564.42,513.97c-0.46-0.19-0.92-0.39-1.37-0.59
				C563.51,513.58,563.96,513.78,564.42,513.97z"/>
			<path class="st2" d="M584.79,520.02c-25.2,0-46.87-16.59-53.31-40.56c-0.06,0-0.11,0-0.17,0c-10.07,0-18.25-8.12-18.25-18.11
				c0-9.41,7.28-17.18,16.55-18.03v-2.99c0-30.16,24.76-54.7,55.18-54.7c30.43,0,55.18,24.54,55.18,54.7v2.99
				c9.27,0.86,16.55,8.62,16.55,18.03c0,9.99-8.19,18.11-18.25,18.11c-0.06,0-0.11,0-0.17,0
				C631.66,503.43,609.99,520.02,584.79,520.02z M533.05,475.28c0.94,0,1.77,0.64,1.99,1.57c5.41,23.01,25.87,39.08,49.74,39.08
				c23.87,0,44.33-16.07,49.75-39.08c0.24-1,1.17-1.66,2.2-1.56c0.54,0.06,1.04,0.08,1.53,0.08c7.81,0,14.17-6.29,14.17-14.02
				c0-7.73-6.35-14.01-14.15-14.02c-0.14,0.01-0.23,0.01-0.32,0.02c-0.55,0-1.08-0.2-1.47-0.58c-0.39-0.39-0.61-0.91-0.61-1.46
				v-4.98c0-27.91-22.92-50.61-51.1-50.61s-51.1,22.71-51.1,50.61v4.98c0,0.55-0.22,1.07-0.61,1.46c-0.39,0.38-0.89,0.58-1.47,0.58
				c-0.09,0-0.18-0.01-0.27-0.01c0,0,0,0-0.01,0c-7.84,0-14.2,6.29-14.2,14.02c0,7.73,6.36,14.02,14.17,14.02
				c0.49,0,0.99-0.03,1.53-0.08C532.91,475.28,532.98,475.28,533.05,475.28z"/>
			<path class="st4" d="M520.74,432.47v16.72c2.84-2.43,6.53-3.9,10.57-3.9c0.11,0,0.22,0.02,0.34,0.02v-4.98
				c0-2.67,0.21-5.3,0.6-7.86H520.74z"/>
			<path class="st4" d="M637.32,432.47c0.39,2.56,0.6,5.19,0.6,7.86v4.98c0.11,0,0.22-0.02,0.34-0.02c4.2,0,8.01,1.59,10.89,4.19
				v-17.01H637.32z"/>
			<path class="st2" d="M520.74,451.23c-0.29,0-0.58-0.06-0.85-0.19c-0.72-0.34-1.19-1.06-1.19-1.86v-16.72
				c0-1.13,0.92-2.04,2.04-2.04h11.51c0.6,0,1.16,0.26,1.55,0.71c0.39,0.45,0.56,1.05,0.47,1.64c-0.38,2.53-0.58,5.08-0.58,7.56
				v4.98c0,0.55-0.22,1.07-0.61,1.46c-0.39,0.39-0.91,0.58-1.47,0.59c-0.09,0-0.18-0.01-0.27-0.01c0,0-0.01,0-0.01,0
				c-3.41,0-6.69,1.21-9.26,3.41C521.69,451.06,521.22,451.23,520.74,451.23z M522.79,434.51v10.84c2.11-1.11,4.43-1.8,6.82-2.03v-3
				c0-1.92,0.11-3.86,0.32-5.82H522.79z"/>
			<path class="st2" d="M649.15,451.52c-0.49,0-0.99-0.18-1.37-0.53c-2.62-2.36-6-3.66-9.52-3.66c-0.12,0.01-0.21,0.01-0.3,0.02
				c-0.55,0-1.08-0.2-1.47-0.58c-0.39-0.39-0.61-0.91-0.61-1.46v-4.98c0-2.48-0.2-5.02-0.58-7.56c-0.09-0.59,0.08-1.19,0.47-1.64
				c0.39-0.45,0.95-0.71,1.55-0.71h11.83c1.13,0,2.04,0.92,2.04,2.04v17.01c0,0.81-0.48,1.54-1.21,1.87
				C649.72,451.46,649.43,451.52,649.15,451.52z M639.97,443.32c2.51,0.24,4.94,0.99,7.14,2.2v-11.02h-7.46
				c0.21,1.96,0.32,3.9,0.32,5.82V443.32z"/>
			<path class="st4" d="M562.79,523.82c0,0,3.85,10.38,24.09,10.38c20.24,0,19.96-11.02,19.96-11.02h13.36
				c0,0,21.5,9.94,22.31,16.33c0.81,6.4,2.04,26.08,2.04,26.08H525.02v-17.16l4.9-11.86l4.37-7.12l17.83-5.23L562.79,523.82z"/>
			<path class="st4" d="M622.91,432.46h27.46c2,0,3.62-1.62,3.62-3.62v-20.19c0-23.01-18.65-41.66-41.66-41.66h-1.7
				c-6,0-10.87,4.87-10.87,10.87v31.46C599.76,422.1,610.12,432.46,622.91,432.46z"/>
			<path class="st4" d="M567.31,432.46h-47.76c-2.01,0-3.64-1.63-3.64-3.64v-16.61c0-24.98,20.25-45.22,45.22-45.22h27.88
				c5.99,0,10.85,4.86,10.85,10.85v22.06C599.87,417.89,585.29,432.46,567.31,432.46z"/>
			<g>
				<path class="st2" d="M650.36,434.51h-27.46c-13.89,0-25.19-11.3-25.19-25.19v-31.46c0-7.12,5.79-12.91,12.91-12.91h1.7
					c24.1,0,43.7,19.6,43.7,43.7v20.19C656.03,431.97,653.49,434.51,650.36,434.51z M610.63,369.03c-4.87,0-8.82,3.96-8.82,8.82
					v31.46c0,11.64,9.47,21.1,21.1,21.1h27.45c0.87,0,1.58-0.71,1.58-1.58v-20.19c0-21.84-17.77-39.61-39.61-39.61H610.63z"/>
				<path class="st2" d="M567.31,434.51h-47.76c-3.13,0-5.68-2.55-5.68-5.68v-16.61c0-26.06,21.2-47.27,47.27-47.27h27.88
					c7.11,0,12.9,5.79,12.9,12.9v22.06C601.91,418.98,586.39,434.51,567.31,434.51z M561.13,369.03
					c-23.81,0-43.18,19.37-43.18,43.18v16.61c0,0.88,0.71,1.59,1.59,1.59h47.76c16.83,0,30.52-13.69,30.52-30.52v-22.06
					c0-4.86-3.95-8.81-8.81-8.81H561.13z"/>
				<path class="st2" d="M644.55,567.63H525.02c-1.13,0-2.04-0.92-2.04-2.04v-14.27c0-16.07,13.07-29.14,29.14-29.14h6.51v-9.92
					c0-0.71,0.37-1.37,0.97-1.74c0.6-0.37,1.36-0.41,1.99-0.08c7.23,3.65,15.03,5.51,23.19,5.51c8.16,0,15.96-1.85,23.18-5.5
					c0.63-0.32,1.39-0.29,1.99,0.08c0.6,0.37,0.97,1.03,0.97,1.74v9.91h6.52c16.07,0,29.14,13.07,29.14,29.14v14.27
					C646.59,566.71,645.68,567.63,644.55,567.63z M527.07,563.54h115.44v-12.23c0-13.82-11.24-25.06-25.06-25.06h-8.61
					c-0.02,0-0.04,0-0.06,0c-0.61,0-1.2-0.28-1.58-0.75c-0.39-0.47-0.55-1.1-0.43-1.69c0.05-0.25,0.07-0.46,0.07-0.64v-7.69
					c-6.95,3.02-14.35,4.54-22.06,4.54c-7.7,0-15.11-1.53-22.07-4.55v7.73c0,0.16,0.02,0.36,0.08,0.61c0.12,0.6-0.04,1.22-0.43,1.7
					c-0.39,0.47-0.97,0.75-1.58,0.75h-8.66c-13.82,0-25.06,11.24-25.06,25.06L527.07,563.54L527.07,563.54z"/>
			</g>
		</g>
	</g>
	<g>
		<g>
			<path class="st1" d="M113.97,431.71c0,4.26-1.59,7.66-4.77,10.18c-3.18,2.53-7.13,3.79-11.86,3.79c-3.21,0-6.15-0.61-8.81-1.82
				c-2.66-1.21-4.74-2.89-6.25-5.02c-1.51-2.13-2.26-4.51-2.26-7.13c0-1.84,0.34-5.49,1.03-10.97c0.69-5.48,1.53-11.33,2.51-17.57
				l-8.86-0.49c-2.56,15.35-3.84,25.29-3.84,29.82c0,4.07,1.16,7.74,3.49,11.02c2.33,3.28,5.53,5.86,9.6,7.73
				c4.07,1.87,8.62,2.8,13.68,2.8c4.79,0,9.14-0.85,13.04-2.56c3.9-1.71,6.99-4.17,9.25-7.38c2.26-3.22,3.39-6.99,3.39-11.32v-52.35
				h-9.35V431.71z"/>
			<rect x="93.4" y="370.8" class="st1" width="8.95" height="9.64"/>
			<polygon class="st1" points="171.93,421.28 154.81,421.28 154.81,372.87 145.46,372.87 145.46,421.28 132.96,421.28 
				132.96,429.65 181.18,429.65 181.18,359.58 171.93,359.58 			"/>
			<path class="st1" d="M138.57,364.5c2.1-1.84,3.64-2.76,4.63-2.76c0.46,0,1.24,0.23,2.36,0.69c1.11,0.46,2.26,0.95,3.44,1.48
				c3.48,1.38,5.77,2.07,6.89,2.07c2.1,0,4.43-1.44,6.99-4.33l-1.67-5.41l-1.08,0.98c-0.92,0.79-1.77,1.43-2.56,1.92
				c-0.79,0.49-1.38,0.74-1.77,0.74c-0.46,0-2.3-0.69-5.51-2.07c-3.35-1.44-5.61-2.17-6.79-2.17c-1.31,0-2.64,0.44-3.99,1.33
				c-1.35,0.89-2.58,1.95-3.69,3.2l1.57,5.31L138.57,364.5z"/>
			<rect x="197.31" y="359.58" class="st1" width="9.35" height="70.07"/>
			<path class="st1" d="M262.56,395.1l20.57-4.04l-1.18-4.92l-11.02,2.95c-1.57-1.18-2.36-2.69-2.36-4.53c0-1.51,0.52-2.8,1.57-3.89
				c1.05-1.08,2.4-1.63,4.04-1.63c0.92,0,1.77,0.16,2.56,0.49c0.79,0.33,1.38,0.66,1.77,0.98l1.08-4.43
				c-2.36-1.57-4.79-2.36-7.28-2.36c-2.82,0-5.12,0.92-6.89,2.75c-1.77,1.84-2.66,4-2.66,6.5c0,1.38,0.3,2.71,0.89,3.99
				c0.59,1.28,1.48,2.38,2.66,3.3l-4.72,1.28L262.56,395.1z"/>
			<path class="st1" d="M295.42,421.28h-27.85c-6.56,0-11.1-0.84-13.63-2.51c-2.53-1.67-3.79-4.41-3.79-8.21
				c0-2.49,0.46-6.82,1.38-12.99l0.39-3.15l-7.68-0.39c-1.64,8.33-2.46,14.56-2.46,18.7c0,4.4,0.97,7.82,2.9,10.28
				c1.93,2.46,4.81,4.18,8.61,5.17c3.8,0.98,8.72,1.48,14.76,1.48h36.71v-70.07h-9.35V421.28z"/>
			<path class="st1" d="M452.09,421.28c-2.03-1.84-3.74-4.31-5.12-7.43c-1.38-3.12-2.07-6.61-2.07-10.48
				c0-4.98,1.21-8.82,3.64-11.51c2.43-2.69,5.64-4.03,9.64-4.03c2.49,0,5.28,0.46,8.36,1.38c3.08,0.92,5.28,1.77,6.59,2.56
				l0.39-8.46c-2.36-1.25-5.05-2.21-8.07-2.9c-3.02-0.69-5.77-1.03-8.27-1.03c-4.2,0-7.94,0.94-11.22,2.8
				c-3.28,1.87-5.84,4.58-7.67,8.12c-1.84,3.54-2.76,7.74-2.76,12.6c0,3.87,0.54,7.41,1.62,10.63c1.08,3.22,2.38,5.81,3.89,7.78
				h-17.03h-3.84c-1.57,0-2.97-0.38-4.18-1.13c-1.21-0.75-2.18-1.72-2.9-2.9v-12.2c0-9.05-1.85-15.58-5.56-19.58
				c-3.71-4-9.83-6-18.35-6c-3.61,0-6.97,0.3-10.09,0.89c-3.12,0.59-5.56,1.25-7.33,1.97c-0.72,2.82-1.38,6.35-1.97,10.58
				c-0.59,4.23-0.89,8.41-0.89,12.55c0,5.18,0.46,10.47,1.38,15.84h-15.94h-13.58v-40.74h-9.25v51.66c0,4.26-0.75,7.58-2.26,9.94
				c-1.51,2.36-3.74,3.54-6.69,3.54c-1.38,0-3.15-0.1-5.31-0.3v8.27l2.36,0.2c1.77,0.2,3.41,0.3,4.92,0.3
				c5.44,0,9.51-2.05,12.2-6.15c2.69-4.1,4.04-10.02,4.04-17.76v-0.59h13.58h58.75v-4.04c0.92,1.18,2.03,2.15,3.35,2.9
				c1.31,0.75,2.56,1.13,3.74,1.13h3.84h52.45v-8.36H452.09z M403.77,421.28h-24.21c-0.33-1.77-0.64-4.12-0.94-7.04
				c-0.3-2.92-0.44-5.86-0.44-8.81c0-5.12,0.49-10.69,1.48-16.73c2.69-0.59,5.44-0.88,8.27-0.88c5.51,0,9.53,1.33,12.06,3.99
				c2.52,2.65,3.79,7,3.79,13.04V421.28z"/>
		</g>
		<g>
			<polygon class="st4" points="99.74,524.56 85.09,477.06 70.87,477.06 70.87,535.32 79,535.32 79,485.86 80.18,485.86 
				95.42,533.03 104.06,533.03 119.22,485.86 120.49,485.86 120.49,535.32 128.62,535.32 128.62,477.06 114.31,477.06 			"/>
			<polygon class="st4" points="157.5,528.54 154.96,528.54 145.3,492.97 137.43,492.97 148.94,535.32 155.8,535.32 150.55,553.78 
				158.34,553.78 175.11,492.97 167.24,492.97 			"/>
			<path class="st4" d="M192.38,477.06l-15.07,58.26h8.04l3.64-13.63h23.54l3.64,13.63h8.04l-15.07-58.26H192.38z M190.69,514.48
				l7.87-30.57h4.4l7.88,30.57H190.69z"/>
			<path class="st4" d="M246.33,492.13c-11.01,0-16.51,4.91-16.51,14.74c0,6.15,2.14,10.36,6.44,12.62c-1.3,2.2-2.13,3.74-2.5,4.62
				c-0.37,0.88-0.55,1.71-0.55,2.5c0,1.13,0.21,2.2,0.64,3.22c0.42,1.01,1.09,1.84,1.99,2.45c-2.48,1.92-4.19,3.6-5.12,5.04
				s-1.4,3.37-1.4,5.8c0,4.29,1.42,7.35,4.28,9.19c2.85,1.83,7.38,2.75,13.59,2.75c7.11,0,12.26-1.16,15.45-3.47
				c3.19-2.32,4.78-5.96,4.78-10.92c0-3.27-0.65-5.77-1.95-7.49s-3.13-2.86-5.5-3.43c-2.37-0.56-5.53-0.88-9.48-0.93h-2.96
				c-2.32,0-4.02-0.2-5.12-0.59c-1.1-0.4-1.65-1.27-1.65-2.63c0-0.96,0.45-2.51,1.35-4.66c1.07,0.23,2.46,0.34,4.15,0.34
				c5.7,0,9.89-1.09,12.57-3.26c2.68-2.17,4.02-5.77,4.02-10.8c0-1.92-0.2-3.49-0.59-4.7s-1.04-2.33-1.95-3.34l7.54,0.25v-6.52
				l-12.87,0.34C251.8,492.5,248.92,492.13,246.33,492.13z M241.08,535.23l8.64,0.51c2.54,0.06,4.46,0.21,5.76,0.46
				c1.3,0.25,2.27,0.76,2.92,1.52c0.65,0.76,0.98,1.93,0.98,3.51c0,2.65-0.86,4.53-2.58,5.63c-1.72,1.1-4.7,1.65-8.93,1.65
				c-3.9,0-6.66-0.5-8.3-1.48c-1.64-0.99-2.46-2.7-2.46-5.12c0-1.36,0.28-2.51,0.85-3.47C238.51,537.49,239.55,536.42,241.08,535.23
				z M252.98,513.13c-1.33,1.3-3.51,1.95-6.56,1.95s-5.26-0.65-6.65-1.95c-1.38-1.3-2.07-3.41-2.07-6.35c0-2.94,0.69-5.07,2.07-6.39
				c1.38-1.33,3.6-1.99,6.65-1.99c2.99,0,5.16,0.65,6.52,1.95c1.36,1.3,2.03,3.42,2.03,6.35
				C254.96,509.69,254.3,511.83,252.98,513.13z"/>
			<path class="st4" d="M291.55,492.04c-6.21,0-10.8,1.91-13.76,5.72c-2.96,3.81-4.45,9.64-4.45,17.49c0,7.28,1.38,12.61,4.15,15.96
				c2.77,3.36,7.39,5.04,13.89,5.04c4.06,0,9.4-0.56,16-1.69l-0.17-6.1l-2.37,0.25c-1.75,0.17-3.73,0.3-5.93,0.38
				c-2.2,0.08-4.18,0.13-5.93,0.13c-2.99,0-5.31-0.37-6.95-1.1s-2.82-1.93-3.56-3.6c-0.73-1.67-1.13-4.02-1.19-7.07h27.01l0.51-5.76
				C308.82,498.59,303.06,492.04,291.55,492.04z M281.22,511.27c0.05-4.4,0.9-7.61,2.54-9.61c1.64-2,4.23-3.01,7.79-3.01
				c3.39,0,5.8,0.96,7.24,2.88c1.44,1.92,2.16,5.17,2.16,9.74H281.22z"/>
			<polygon class="st4" points="355.06,528.2 353.53,528.2 333.8,477.06 319.32,477.06 319.32,535.32 327.45,535.32 327.45,484.17 
				328.8,484.17 348.96,535.32 363.19,535.32 363.19,477.06 355.06,477.06 			"/>
			<path class="st4" d="M392.06,492.04c-6.49,0-11.21,1.78-14.14,5.34c-2.94,3.56-4.4,9.2-4.4,16.94c0,7.57,1.44,13.11,4.32,16.64
				c2.88,3.53,7.62,5.29,14.23,5.29c6.6,0,11.35-1.78,14.23-5.34c2.88-3.56,4.32-9.09,4.32-16.6c0-7.68-1.46-13.31-4.36-16.89
				C403.34,493.84,398.61,492.04,392.06,492.04z M401.55,523.29c-0.62,2.15-1.68,3.7-3.18,4.66c-1.5,0.96-3.6,1.44-6.31,1.44
				c-2.71,0-4.83-0.48-6.35-1.44c-1.52-0.96-2.6-2.53-3.22-4.7c-0.62-2.17-0.93-5.15-0.93-8.93c0-3.95,0.32-7.04,0.97-9.27
				c0.65-2.23,1.74-3.81,3.26-4.74c1.52-0.93,3.61-1.4,6.27-1.4c2.65,0,4.73,0.46,6.22,1.4c1.49,0.93,2.57,2.5,3.22,4.7
				c0.65,2.2,0.98,5.31,0.98,9.31C402.48,518.15,402.17,521.15,401.55,523.29z"/>
			<polygon class="st4" points="468.7,492.97 461.25,528.54 459.64,528.54 450.66,493.82 442.45,493.82 433.56,528.54 
				431.95,528.54 424.5,492.97 416.62,492.97 426.02,535.32 438.89,535.32 446.6,504.41 454.22,535.32 467.09,535.32 476.49,492.97 
							"/>
		</g>
	</g>
</g>
</svg>
