<?xml version="1.0" encoding="UTF-8" standalone="no"?>
<svg
   xmlns:dc="http://purl.org/dc/elements/1.1/"
   xmlns:cc="http://creativecommons.org/ns#"
   xmlns:rdf="http://www.w3.org/1999/02/22-rdf-syntax-ns#"
   xmlns:svg="http://www.w3.org/2000/svg"
   xmlns="http://www.w3.org/2000/svg"
   viewBox="0 0 1466.6666 1066.6666"
   height="1066.6666"
   width="1466.6666"
   xml:space="preserve"
   id="svg2"
   version="1.1"><metadata
     id="metadata8"><rdf:RDF><cc:Work
         rdf:about=""><dc:format>image/svg+xml</dc:format><dc:type
           rdf:resource="http://purl.org/dc/dcmitype/StillImage" /></cc:Work></rdf:RDF></metadata><defs
     id="defs6" /><g
     transform="matrix(1.3333333,0,0,-1.3333333,0,1066.6666)"
     id="g10"><g
       transform="scale(0.1)"
       id="g12"><path
         id="path14"
         style="fill:#ffffff;fill-opacity:1;fill-rule:nonzero;stroke:none"
         d="M 11000,0 H 0 V 8000 H 11000 V 0" /><path
         id="path16"
         style="fill:#f1f2f2;fill-opacity:1;fill-rule:nonzero;stroke:none"
         d="m 5219.64,1558.82 c -281.93,-0.84 -563.85,-7.62 -845.28,-38.92 -106.11,-11.8 -210,-37.76 -316.35,-48.23 -212.44,-20.92 -421.07,-59.94 -634.26,-77.93 -171.68,-14.5 -344.07,-23.05 -515.26,-41.44 -160.48,-17.24 -338.16,-13.26 -497.42,15.22 -117.9,21.09 -236.33,32.96 -352.25,66.83 -129.67,37.88 -270.55,64.97 -405.66,64 -192.65,-1.39 -380.28,-1.56 -564.65,-68.45 -64.72,-23.49 -143.955,-62.09 -193.104,-111.37 C 782.898,1205.71 767.672,924.211 880.012,807.199 1069.22,610.27 1473.06,533 1738.28,529.352 c 290.63,-4 572.96,17.57 864.01,30.257 270.46,11.793 540.23,28.563 811.13,27.973 553.28,-1.211 1106.64,0 1658.93,36.957 518.88,34.723 1039.07,22.801 1559.09,22.801 533.26,0 1062.91,-4.192 1592.32,-75.059 230.68,-30.879 465.68,-41.691 697.51,-63.32 207.62,-19.379 407.14,0.379 613.94,18.281 173.64,15.039 346.15,59.637 503.89,135.028 124.9,59.679 347.5,245.07 385.8,387.52 107.4,399.35 -1513,389.75 -1761.79,388.85 -278.31,-1.01 -558.84,-10.16 -836.94,0.45 -116.97,4.46 -232.23,27.32 -346.4,52.38 -113.72,24.95 -228.3,18.61 -343.62,29.09 -480.92,43.74 -962.91,37.35 -1445.36,37.35 -156.99,0 -314.07,1.38 -471.15,0.91" /><path
         id="path18"
         style="fill:#587bc9;fill-opacity:1;fill-rule:nonzero;stroke:none"
         d="M 7903.59,4030.1 H 3691.67 V 6810 H 7903.59 V 4030.1" /><path
         id="path20"
         style="fill:#d1d2d3;fill-opacity:1;fill-rule:nonzero;stroke:none"
         d="M 8004.86,3873.81 H 3590.4 v 185.38 h 4414.46 v -185.38" /><path
         id="path22"
         style="fill:#202b38;fill-opacity:1;fill-rule:nonzero;stroke:none"
         d="m 3921.72,1536.3 -6.41,-63.28 114.98,-78.92 67.1,55.48 -54.28,71.09 -114.98,78.91 -6.41,-63.28" /><path
         id="path24"
         style="fill:#3b455a;fill-opacity:1;fill-rule:nonzero;stroke:none"
         d="m 3924.59,3471.19 -19.47,-192.2 172.42,-660.34 -160.1,-1061.14 117.85,-40.6 310.75,1035.98 49.31,301.38 -1.79,638.02 -468.97,-21.1" /><path
         id="path26"
         style="fill:#3b455a;fill-opacity:1;fill-rule:nonzero;stroke:none"
         d="M 4830.99,3256.98 4583.1,1478.9 h -112.67 l -20.28,1139.75 -205.07,799.97 585.91,-161.64" /><path
         id="path28"
         style="fill:#202b38;fill-opacity:1;fill-rule:nonzero;stroke:none"
         d="m 4592.93,1492.96 60.92,-63.87 -60.92,-63.87 -121.85,63.87 v 63.87 h 121.85" /><path
         id="path30"
         style="fill:#7db5db;fill-opacity:1;fill-rule:nonzero;stroke:none"
         d="m 4547.23,4641.53 c -89.65,74.22 -305.81,31.55 -419.54,31.55 -23.7,-249.55 -69.44,-498.76 -125.43,-742.83 -48.38,-210.92 -140.6,-416.53 -181.65,-627.16 -36.61,-187.84 -116.38,-322.88 -266.39,-451.55 -23.37,-20.05 -50.29,-46.08 -43.33,-76.07 4.2,-18.09 19.91,-30.94 35.23,-41.44 151.23,-103.73 345.66,-114.54 529.02,-117.63 139.24,-2.35 278.51,-2.27 417.74,0.25 181.39,3.27 383.2,24.61 537.86,129.54 9.77,6.62 20.19,15.17 20.93,26.95 0.64,10.1 -6.13,18.95 -12.06,27.14 -108.03,149.27 -95.53,396.14 -116.59,570.9 -23.76,197.24 -47.63,395.03 -94.71,588.03 -30.54,125.2 -70.84,248 -120.32,366.99 -37.67,90.58 -82.62,238.94 -153.38,308.68 -2.35,2.31 -4.81,4.53 -7.38,6.65" /><path
         id="path32"
         style="fill:#3b455a;fill-opacity:1;fill-rule:nonzero;stroke:none"
         d="m 4281.91,4982.08 c 8.71,49.23 37.62,94.58 78.59,123.24 49.85,-18.6 89.52,-62.43 103.08,-113.88 13.56,-51.45 0.64,-109.15 -33.56,-149.9 -16.73,71.93 -80.45,130.51 -153.53,141.14 l 5.42,-0.6" /><path
         id="path34"
         style="fill:#eac1a4;fill-opacity:1;fill-rule:nonzero;stroke:none"
         d="m 4360.73,4619.69 c 53.78,25.31 87.98,82.19 97.81,140.81 9.82,58.62 -1.77,118.87 -19.89,175.48 -60.28,188.37 -297.14,125.36 -347.03,-39.34 -43.48,-143.53 112.74,-350.52 269.11,-276.95" /><path
         id="path36"
         style="fill:#3b455a;fill-opacity:1;fill-rule:nonzero;stroke:none"
         d="m 4294.91,3303.46 c 34.2,26 30.23,77.13 39.08,119.16 8.84,42.04 61.83,83.84 89.77,51.22 59.4,24.43 90.64,93.2 90.45,157.43 -0.19,64.24 -25.48,125.41 -50.35,184.63 -88.5,210.78 -190.28,412.19 -191.54,645.2 -0.43,78.72 11.11,156.96 22.62,234.84 10.25,69.28 18.8,139.06 30.77,208.06 7.94,45.74 39.87,86.43 43.56,129.88 2.57,30.39 -13.13,60.2 -35.52,80.92 -34.45,31.87 -72.31,45.18 -117.84,40.67 -159.85,-15.82 -268.05,-124.86 -294.09,-286.06 -22.02,-136.29 13.25,-274.34 38.64,-410.04 38.18,-204.06 25.28,-446.97 -74.44,-631.32 -40.63,-75.12 -85.79,-151.03 -95.63,-235.87 -9.84,-84.83 27.22,-182.29 107.33,-211.91 31.29,-11.57 66.84,-12.22 95.05,-30.05 29.63,-18.74 36.33,-56.35 14.94,-82.91 42.27,-56.3 75.54,-7.39 118.11,9.61 51.92,20.73 125.34,-6.72 169.09,26.54" /><path
         id="path38"
         style="fill:#7db5db;fill-opacity:1;fill-rule:nonzero;stroke:none"
         d="m 4405.29,4650.69 546.2,39.04 275.34,309.95 136.65,-81.47 -301.83,-423.69 -589.6,-123.63 -66.76,279.8" /><path
         id="path40"
         style="fill:#eac1a4;fill-opacity:1;fill-rule:nonzero;stroke:none"
         d="m 5260.51,4979.6 28.08,97.4 h 34.7 l 10.85,28.32 h 54.22 l 49.89,-73.86 -99.45,-98.54 -78.29,46.68" /><path
         id="path42"
         style="fill:#ffffff;fill-opacity:1;fill-rule:nonzero;stroke:none"
         d="m 5288.59,5077 -28.08,154 49.77,19.52 39.1,-173.52 h -60.79" /><path
         id="path44"
         style="fill:#3c3c3c;fill-opacity:1;fill-rule:nonzero;stroke:none"
         d="m 7166.06,1565.83 114.02,105.32 c 33.08,16.73 68.07,28.43 96.43,28.07 20.59,-0.26 37.68,-6.87 47.98,-22.5 9.9,-15.01 11.91,-34.77 5.17,-50.78 -2.47,-5.85 -5.97,-11.1 -9.91,-16.04 h 0.01 l -0.06,-0.06 c -3.39,-4.25 -7.11,-8.28 -10.81,-12.25 -2.35,-2.53 -4.95,-5.25 -7.71,-8.08 -23.59,-25.58 -63.13,-67.22 -78.82,-76.64 -23.02,-13.81 -73.67,-50.65 -133.52,-9.21 l 0.69,0.59 c -21.76,14.73 -28.17,38.94 -23.47,61.58" /><path
         id="path46"
         style="fill:#e8c8ba;fill-opacity:1;fill-rule:nonzero;stroke:none"
         d="m 7255.55,2483.01 9.21,-132.17 45.17,-643.41 -45.17,-74.85 c 0,0 -9.21,-59.86 59.86,-55.25 20.54,1.37 93.3,93.88 93.3,93.88 l -10.52,42.4 51.21,483.11 -0.47,140.31 24.49,155.8 -227.08,-9.82" /><path
         id="path48"
         style="fill:#3c3c3c;fill-opacity:1;fill-rule:nonzero;stroke:none"
         d="m 7978.33,1729.21 c 21.23,6.68 41,5.66 56.84,-6.91 15.23,-12.07 23.95,-31.68 22.43,-50.39 -1.04,-12.75 -6.44,-24.57 -11.76,-36.1 -27.53,-59.68 -104.75,-194.61 -193.36,-169.88 -37.23,10.4 -51.33,48.41 -43.77,81.99 11.39,50.59 98.65,158.97 169.62,181.29" /><path
         id="path50"
         style="fill:#e8c8ba;fill-opacity:1;fill-rule:nonzero;stroke:none"
         d="m 7531.74,2560.18 15.43,-190.3 373.56,-672.59 c 0,0 -53.7,-93.81 -19.64,-101.96 34.05,-8.15 133.92,20.27 134.13,126.19 -39.28,128.29 -193.66,563.9 -193.66,563.9 l -72.29,112.4 1.07,211.25 -238.6,-48.89" /><path
         id="path52"
         style="fill:#d7e8f4;fill-opacity:1;fill-rule:nonzero;stroke:none"
         d="m 7953.8,3197.2 c 2.95,56.1 -15,202.47 -33.43,254.92 -67.2,191.24 -80.16,285.49 -80.16,441.15 0,155.66 69.06,649.2 69.06,649.2 l -239.93,144.02 -287.61,-8.07 -159.72,-52.67 c 0,0 -33.81,-620.95 -43.41,-821.08 -6.84,-142.82 -16.77,-266.52 -29.82,-432 0,0 -36.61,-377.45 19.95,-782.08 0,0 12.62,-134.35 18.28,-146.13 0.75,-3.99 1.17,-6.13 1.17,-6.13 l 2.3,-0.01 639.57,0.01 0.01,230.58 c 21.29,74.01 41.5,148.36 60.88,222.89 24.63,94.73 57.38,201.29 62.86,305.4" /><path
         id="path54"
         style="fill:#3b455a;fill-opacity:1;fill-rule:nonzero;stroke:none"
         d="m 7308.66,4884.46 c -14.03,-54.3 18.18,-107.93 46.36,-153.72 11.52,-18.71 29.36,-44.73 14.51,-66.09 -16.64,-23.91 -57.95,-19.12 -76.12,-1.24 -12.83,12.62 -19.14,29.73 -24.61,46.42 -24.54,74.77 -58.79,179.51 -52.09,258.11 5.37,63.03 82.66,174.95 162.28,134.91 14.45,-7.27 23.72,-20.93 31.65,-34.36 4.73,-8.02 9.3,-16.42 10.25,-25.57 3.76,-36.49 -31.44,-45.88 -54.56,-65.49 -28.52,-24.2 -48.71,-58.31 -57.67,-92.97" /><path
         id="path56"
         style="fill:#e8c8ba;fill-opacity:1;fill-rule:nonzero;stroke:none"
         d="m 7441.52,4689.43 c -53.17,6.75 -97.63,43.92 -121.41,88.67 -23.79,44.75 -29.47,96.24 -28.53,146.45 3.1,167.09 224.66,176.37 310.81,56.29 75.07,-104.64 -6.26,-311.05 -160.87,-291.41" /><path
         id="path58"
         style="fill:#3b455a;fill-opacity:1;fill-rule:nonzero;stroke:none"
         d="m 7592.77,4901.97 c 1.82,-20.24 12.12,-41.69 14.96,-62.48 5.22,-38.26 -3.35,-87.92 10.66,-122.88 38.85,5.32 86.1,29.63 114.88,56.29 29.4,27.22 24.11,67.71 30.69,107.82 6.07,37.1 13.82,74.38 11.7,111.92 -11.6,205.5 -216.66,317.87 -397.34,225.17 -68.35,-35.07 -98.24,-124.2 -47.96,-182.76 54.07,-62.99 163.94,-35.68 228.71,-82.42 14.37,-10.37 25.41,-28.99 33.7,-50.66" /><path
         id="path60"
         style="fill:#e8c8ba;fill-opacity:1;fill-rule:nonzero;stroke:none"
         d="m 7437.07,4706.67 c 2.69,-12.44 5.39,-24.88 8.08,-37.32 1.24,-5.7 0.78,-22.03 5.69,-25.94 2.56,-2.04 6.35,-1.74 9.71,-1.32 9.61,1.18 95.6,12.13 94.66,17.59 -2.51,14.67 -5.32,29.02 -9.9,43.03 -3.69,11.31 -5.1,32.6 -11.92,41.18 -14.61,-9.99 -29.71,-16.16 -46.91,-21.04 -16.6,-4.71 -33.28,-9.14 -50.04,-13.29 0.21,-0.96 0.42,-1.93 0.63,-2.89" /><path
         id="path62"
         style="fill:#3b455a;fill-opacity:1;fill-rule:nonzero;stroke:none"
         d="m 6607.91,3399.92 832.63,306.39 c 25.33,9.32 37.75,38.93 27.74,66.13 l -432.49,1175.29 c -10.01,27.21 -38.66,41.7 -63.99,32.38 l -832.63,-306.39 c -25.32,-9.33 -37.74,-38.93 -27.74,-66.14 l 432.5,-1175.29 c 10.01,-27.19 38.66,-41.69 63.98,-32.37" /><path
         id="path64"
         style="fill:#305399;fill-opacity:1;fill-rule:nonzero;stroke:none"
         d="m 6906.67,4132.02 218.03,80.23 c 13.57,4.99 20.22,20.85 14.86,35.43 l -83.82,227.77 c -5.36,14.57 -20.71,22.34 -34.28,17.35 l -218.03,-80.24 c -13.57,-4.99 -20.22,-20.85 -14.86,-35.42 l 83.82,-227.78 c 5.36,-14.57 20.71,-22.34 34.28,-17.34" /><path
         id="path66"
         style="fill:#305399;fill-opacity:1;fill-rule:nonzero;stroke:none"
         d="m 6504.68,3984.09 218.03,80.23 c 13.57,5 20.22,20.86 14.86,35.43 l -83.82,227.77 c -5.36,14.58 -20.71,22.34 -34.27,17.35 l -218.04,-80.23 c -13.57,-5 -20.22,-20.86 -14.86,-35.43 l 83.82,-227.78 c 5.36,-14.57 20.71,-22.33 34.28,-17.34" /><path
         id="path68"
         style="fill:#305399;fill-opacity:1;fill-rule:nonzero;stroke:none"
         d="m 7043.69,3759.65 218.04,80.23 c 13.57,4.99 20.22,20.85 14.85,35.43 l -83.81,227.77 c -5.37,14.57 -20.71,22.34 -34.28,17.34 l -218.03,-80.23 c -13.57,-4.99 -20.22,-20.85 -14.86,-35.42 l 83.82,-227.78 c 5.36,-14.57 20.7,-22.34 34.27,-17.34" /><path
         id="path70"
         style="fill:#7db5db;fill-opacity:1;fill-rule:nonzero;stroke:none"
         d="m 6641.71,3611.72 218.03,80.23 c 13.57,5 20.22,20.86 14.86,35.43 l -83.82,227.77 c -5.36,14.58 -20.71,22.34 -34.28,17.35 l -218.03,-80.23 c -13.57,-5 -20.23,-20.86 -14.86,-35.43 l 83.82,-227.78 c 5.36,-14.57 20.71,-22.33 34.28,-17.34" /><path
         id="path72"
         style="fill:#ececec;fill-opacity:1;fill-rule:nonzero;stroke:none"
         d="m 6922.06,4386.77 c -1.62,4.4 -1.78,8.35 -0.5,11.88 1.29,3.52 3.87,6 7.73,7.42 3.75,1.38 7.32,1.16 10.7,-0.64 3.37,-1.81 5.87,-4.91 7.49,-9.31 l 25.21,-68.51 61.58,22.66 c 3.64,1.34 7.33,1.1 11.1,-0.7 3.76,-1.8 6.32,-4.54 7.66,-8.2 1.45,-3.91 1.33,-7.55 -0.33,-10.94 -1.66,-3.38 -4.47,-5.81 -8.46,-7.27 l -61.58,-22.66 25.28,-68.7 c 1.44,-3.9 1.42,-7.79 -0.06,-11.67 -1.48,-3.87 -3.92,-6.43 -7.34,-7.69 -3.86,-1.42 -7.43,-1.21 -10.69,0.64 -3.26,1.85 -5.7,4.98 -7.32,9.37 l -25.28,68.7 -61.92,-22.79 c -3.98,-1.46 -7.67,-1.44 -11.07,0.09 -3.4,1.52 -5.82,4.23 -7.26,8.14 -1.44,3.91 -1.37,7.68 0.2,11.31 1.57,3.62 4.29,6.15 8.15,7.57 l 61.92,22.79 -25.21,68.51" /><path
         id="path74"
         style="fill:#ececec;fill-opacity:1;fill-rule:nonzero;stroke:none"
         d="m 6497.82,4117.2 c -2.16,-0.8 -4.42,-0.63 -6.77,0.52 -2.36,1.14 -3.95,2.81 -4.75,5.01 l -7.15,19.42 c -0.85,2.32 -0.79,4.42 0.19,6.31 0.99,1.88 2.79,3.31 5.4,4.27 l 141.41,52.04 c 2.28,0.84 4.32,0.82 6.11,-0.04 1.81,-0.86 3.14,-2.45 3.99,-4.77 l 7.15,-19.42 c 0.98,-2.69 1.1,-5.03 0.36,-7.04 -0.74,-2.01 -2.26,-3.43 -4.53,-4.27 l -141.41,-52.03" /><path
         id="path76"
         style="fill:#ececec;fill-opacity:1;fill-rule:nonzero;stroke:none"
         d="m 6617.85,3797.82 c -2.15,-0.8 -4.41,-0.63 -6.77,0.52 -2.36,1.14 -3.94,2.81 -4.75,5.01 l -7.15,19.42 c -0.85,2.32 -0.78,4.42 0.2,6.31 0.98,1.89 2.79,3.32 5.4,4.28 l 141.4,52.03 c 2.28,0.84 4.32,0.83 6.12,-0.04 1.8,-0.86 3.13,-2.45 3.98,-4.77 l 7.15,-19.42 c 0.99,-2.69 1.11,-5.03 0.36,-7.04 -0.74,-2.01 -2.25,-3.43 -4.52,-4.27 l -141.42,-52.03" /><path
         id="path78"
         style="fill:#ececec;fill-opacity:1;fill-rule:nonzero;stroke:none"
         d="m 6644.04,3726.67 c -2.16,-0.8 -4.42,-0.63 -6.78,0.52 -2.36,1.14 -3.94,2.81 -4.75,5.01 l -7.14,19.42 c -0.86,2.32 -0.79,4.42 0.19,6.31 0.99,1.88 2.79,3.31 5.4,4.27 l 141.41,52.04 c 2.28,0.84 4.31,0.82 6.11,-0.04 1.81,-0.86 3.13,-2.45 3.99,-4.77 l 7.14,-19.42 c 0.99,-2.69 1.12,-5.04 0.37,-7.04 -0.75,-2.01 -2.26,-3.43 -4.53,-4.27 l -141.41,-52.03" /><path
         id="path80"
         style="fill:#ececec;fill-opacity:1;fill-rule:nonzero;stroke:none"
         d="m 7034.66,3903.16 c -2.16,-0.79 -4.42,-0.62 -6.78,0.53 -2.36,1.14 -3.94,2.81 -4.75,5.01 l -7.15,19.41 c -0.85,2.32 -0.78,4.43 0.2,6.32 0.99,1.88 2.79,3.31 5.4,4.27 l 141.41,52.04 c 2.27,0.83 4.31,0.82 6.11,-0.04 1.81,-0.86 3.13,-2.46 3.98,-4.77 l 7.15,-19.42 c 0.99,-2.69 1.11,-5.04 0.36,-7.04 -0.74,-2.01 -2.25,-3.43 -4.53,-4.27 l -141.4,-52.04" /><path
         id="path82"
         style="fill:#ececec;fill-opacity:1;fill-rule:nonzero;stroke:none"
         d="m 7063.15,3985.66 c 4.01,-10.88 15.48,-16.69 25.61,-12.96 10.14,3.73 15.11,15.59 11.11,26.47 -4.01,10.89 -15.48,16.69 -25.61,12.96 -10.15,-3.73 -15.12,-15.58 -11.11,-26.47" /><path
         id="path84"
         style="fill:#ececec;fill-opacity:1;fill-rule:nonzero;stroke:none"
         d="m 7096.75,3894.35 c 4.01,-10.89 15.48,-16.69 25.62,-12.96 10.13,3.73 15.11,15.58 11.1,26.47 -4.01,10.89 -15.47,16.69 -25.62,12.96 -10.13,-3.73 -15.1,-15.58 -11.1,-26.47" /><path
         id="path86"
         style="fill:#3b455a;fill-opacity:1;fill-rule:nonzero;stroke:none"
         d="m 6190.69,4392.22 926.5,334.3 -79.53,216.12 c -10,27.17 -40.13,41.09 -67.31,31.09 l -825.94,-303.94 c -27.18,-10 -41.1,-40.13 -31.1,-67.3 l 77.38,-210.27" /><path
         id="path88"
         style="fill:#ececec;fill-opacity:1;fill-rule:nonzero;stroke:none"
         d="m 6288.39,4372.21 750.3,276.11 -64.8,176.09 -750.3,-276.1 64.8,-176.1" /><path
         id="path90"
         style="fill:#e8c8ba;fill-opacity:1;fill-rule:nonzero;stroke:none"
         d="m 7852.57,4585.91 107.68,-58.68 19.26,-170.2 -119.95,-429.5 -705.89,-212.09 -206.26,-40.64 -42.38,52.51 36.52,63.29 89.07,22.74 -8.51,51.03 96.6,-14.42 566.44,211.71 97.07,360.18 70.35,164.07" /><path
         id="path92"
         style="fill:#3b455a;fill-opacity:1;fill-rule:nonzero;stroke:none"
         d="m 2536.97,2511.54 -529.02,194.55 109.04,-926.75 -73.18,-849.551 -1.7,-5.328 1.27,-0.141 -0.14,-1.738 104.36,-9.961 0.02,0.109 3.88,-0.441 243.01,762.361 123.34,758.8 19.12,78.09" /><path
         id="path94"
         style="fill:#202b38;fill-opacity:1;fill-rule:nonzero;stroke:none"
         d="m 2152.17,926.18 -108.23,2.742 -27.64,-91.32 2.73,-0.813 -0.7,-0.078 178.94,-106.02 85.07,-9.461 10.81,97.231 -22.97,16.84 -118.01,90.879" /><path
         id="path96"
         style="fill:#3b455a;fill-opacity:1;fill-rule:nonzero;stroke:none"
         d="m 2897.33,2495.62 -158.77,-1646.78 -104.72,-4.75 -105.2,916.8 -182.37,853.29 551.06,-118.56" /><path
         id="path98"
         style="fill:#202b38;fill-opacity:1;fill-rule:nonzero;stroke:none"
         d="m 2738.28,872 138.7,-78.641 -12.99,-65.437 -247.83,37.348 14.58,94.289 107.54,12.441" /><path
         id="path100"
         style="fill:#bcbec0;fill-opacity:1;fill-rule:nonzero;stroke:none"
         d="m 3145.35,2097.12 c 33.48,23.24 34.2,63.71 34.13,104.25 -0.1,76.11 -13.79,153.92 -31.24,227.88 -33.22,138.76 -70.88,305.89 -87.44,485.69 -42.8,464.71 -189.55,776.55 -189.55,776.55 l -47.35,126.27 c -9.42,16.42 -19.18,32.66 -29.38,48.66 -59.14,92.8 -161.83,250.52 -271.65,276.33 -2.29,0.54 -4.6,1.07 -6.92,1.58 -115.47,25.34 -263.43,13.58 -367.78,-42.56 -19.8,-10.65 -37.41,-24.84 -54.89,-38.94 -51.02,-41.16 -92.64,-63.45 -114.63,-126.17 -19.1,-54.46 -23.54,-113.88 -34.07,-170.32 -21.4,-114.66 -34.16,-230.69 -51.25,-346.02 -32.03,-216.27 -59.24,-433.24 -93.51,-649.18 -17.64,-111.13 -35.4,-222.47 -43.73,-334.77 -7.37,-99.28 -96.94,-200.1 -147.28,-289.08 -17.51,-30.97 234.05,-111.2 256.59,-116.45 104.35,-24.29 215.35,-18.09 322.92,-18.58 235.73,-1.07 471.49,6.2 706.71,21.79 78.17,5.18 174.48,20.11 243.84,59.02 2.29,1.29 4.45,2.64 6.48,4.05" /><path
         id="path102"
         style="fill:#ffffff;fill-opacity:1;fill-rule:nonzero;stroke:none"
         d="m 2386.47,4157.03 c 0,0 -132.78,35.85 -151.13,-263.76 -18.34,-299.62 -48.91,-1057.82 -91.72,-1265.71 -42.8,-207.89 -107,-615.67 -107,-615.67 l 406.61,-14.13 464.71,36.69 c 0,0 -158.98,293.5 -183.44,501.39 -24.46,207.9 18.34,990.56 -85.6,1284.05 -103.95,293.5 -125.76,331.87 -252.43,337.14" /><path
         id="path104"
         style="fill:#bcbec0;fill-opacity:1;fill-rule:nonzero;stroke:none"
         d="m 2987.42,3489.71 30.58,-36.69 208.93,43.01 -539.12,599.02 -165.09,48.91 79.49,-214.01 385.21,-440.24" /><path
         id="path106"
         style="fill:#3b455a;fill-opacity:1;fill-rule:nonzero;stroke:none"
         d="m 2468.41,4443.16 c 39.12,-50.13 33.24,-120.48 27.57,-180.83 -5.02,-53.51 -1.7,-86.38 56.85,-79.56 32.99,3.85 91.76,10.04 110.23,42.9 13.97,24.89 -16.81,75.5 -34.38,93.71 -13.41,13.91 -36.33,15.26 -49.37,29.52 -5.37,5.87 -8.52,13.41 -11.29,20.88 -11.3,30.5 -17.96,62.72 -19.68,95.2 -1.17,22.05 -0.11,44.5 -5.69,65.87 -8.08,30.99 -41.79,58.49 -62.77,82.15 -39.04,44.03 -135.87,87.3 -182.14,25.44 -10.53,-14.09 -13.05,-32.47 -14.39,-50.01 -0.8,-10.47 -1.26,-21.27 2.14,-31.21 13.54,-39.63 51.95,-33.5 83.5,-43.45 38.91,-12.27 74.46,-38.62 99.42,-70.61" /><path
         id="path108"
         style="fill:#eac1a4;fill-opacity:1;fill-rule:nonzero;stroke:none"
         d="m 2431.92,4180.41 c 48.16,31.04 73.58,89.75 75.49,147.02 1.91,57.26 -16.84,113.35 -41.37,165.13 -81.62,172.29 -299.91,81.89 -326.57,-81.84 -23.24,-142.69 152.41,-320.54 292.45,-230.31" /><path
         id="path110"
         style="fill:#eac1a4;fill-opacity:1;fill-rule:nonzero;stroke:none"
         d="m 2425.02,4199.66 c 6.35,-20.68 12.7,-41.35 19.05,-62.03 0.93,-3.02 1.84,-6.38 0.51,-9.26 -1.51,-3.27 -5.32,-4.68 -8.76,-5.77 -16.8,-5.31 -33.59,-10.63 -50.39,-15.94 -8.33,-2.64 -17.01,-5.31 -25.64,-3.99 -18.9,2.88 -29.81,23.23 -33.61,41.97 -3.8,18.73 -3.79,38.98 -13.82,55.25 40.26,-4.72 59.26,44.98 99.52,40.26 l 13.14,-40.49" /><path
         id="path112"
         style="fill:#3b455a;fill-opacity:1;fill-rule:nonzero;stroke:none"
         d="m 2155.57,4731.29 c -51.35,-40.56 -67.83,-112.9 -116.43,-156.71 -27.88,-25.13 -65.93,-40.57 -84.35,-73.27 -41.26,-73.28 45.55,-165.5 18.55,-245.15 -5.61,-16.56 -15.9,-31.23 -21.57,-47.77 -12.22,-35.68 -1.62,-74.69 9,-110.88 2.39,-8.14 5.4,-16.87 9.63,-24.41 36.77,-79.23 153.89,-31.79 199.29,-9.76 49.81,24.17 22.3,46.85 22.3,46.85 l -2.7,1.63 c -16.79,31.51 -15.7,71.85 2.91,102.33 6.91,11.31 16.16,21.65 19.29,34.52 7.04,28.91 -18.65,54.78 -26.32,83.52 -30.85,115.76 166.57,158.68 191.43,257.72 30.48,121.45 -124.07,217.98 -221.03,141.38" /><path
         id="path114"
         style="fill:#dec9ad;fill-opacity:1;fill-rule:nonzero;stroke:none"
         d="m 1727.92,2850.14 92.62,-93.96 41.89,37.83 -49.18,78.39 28.11,8.7 -89.05,70.75 -48.85,-33.45 24.46,-68.26" /><path
         id="path116"
         style="fill:#bcbec0;fill-opacity:1;fill-rule:nonzero;stroke:none"
         d="m 2142.01,3667.24 -310.34,-236.19 -48.73,-463.13 -102.89,-76.73 -109.66,678.42 522.89,493.22 48.73,-395.59" /><path
         id="path118"
         style="fill:#3b455a;fill-opacity:1;fill-rule:nonzero;stroke:none"
         d="m 2032.42,2471.61 -63.12,6.49 120.81,1174.64 63.12,-6.49 -120.81,-1174.64" /><path
         id="path120"
         style="fill:#3b455a;fill-opacity:1;fill-rule:nonzero;stroke:none"
         d="m 2581.14,2415.17 -63.12,6.5 120.8,1174.63 63.13,-6.49 -120.81,-1174.64" /><path
         id="path122"
         style="fill:#3b455a;fill-opacity:1;fill-rule:nonzero;stroke:none"
         d="m 3129.86,2358.74 -63.13,6.49 120.81,1174.64 63.13,-6.5 -120.81,-1174.63" /><path
         id="path124"
         style="fill:#3b455a;fill-opacity:1;fill-rule:nonzero;stroke:none"
         d="m 3591.9,3424 -1798.98,185.03 15.12,146.99 L 3607.01,3571 3591.9,3424" /><path
         id="path126"
         style="fill:#3b455a;fill-opacity:1;fill-rule:nonzero;stroke:none"
         d="m 3471.09,2249.37 -1798.98,185.02 15.12,147 1798.97,-185.02 -15.11,-147" /><path
         id="path128"
         style="fill:#587bc9;fill-opacity:1;fill-rule:nonzero;stroke:none"
         d="m 2243.56,3318.63 -308.58,31.73 c -38.78,3.99 -67.25,38.99 -63.26,77.77 l 1.69,16.47 c 3.99,38.78 38.98,67.25 77.77,63.26 l 308.59,-31.73 c 38.77,-3.99 67.24,-38.99 63.25,-77.77 l -1.69,-16.48 c -3.99,-38.77 -38.98,-67.24 -77.77,-63.25" /><path
         id="path130"
         style="fill:#587bc9;fill-opacity:1;fill-rule:nonzero;stroke:none"
         d="m 2207.46,2967.56 -308.59,31.73 c -38.78,3.99 -67.25,38.98 -63.26,77.77 l 1.69,16.47 c 3.99,38.78 38.99,67.25 77.77,63.26 l 308.59,-31.74 c 38.78,-3.99 67.25,-38.98 63.26,-77.76 l -1.7,-16.47 c -3.98,-38.79 -38.98,-67.25 -77.76,-63.26" /><path
         id="path132"
         style="fill:#587bc9;fill-opacity:1;fill-rule:nonzero;stroke:none"
         d="m 2187.27,2771.28 -308.59,31.74 c -38.78,3.99 -67.24,38.98 -63.26,77.77 l 1.7,16.47 c 3.99,38.78 38.98,67.25 77.76,63.26 l 308.59,-31.74 c 38.78,-3.99 67.25,-38.98 63.26,-77.76 l -1.7,-16.48 c -3.99,-38.78 -38.98,-67.25 -77.76,-63.26" /><path
         id="path134"
         style="fill:#587bc9;fill-opacity:1;fill-rule:nonzero;stroke:none"
         d="m 2166.89,2573.13 -308.58,31.74 c -38.79,3.99 -67.26,38.99 -63.27,77.77 l 1.7,16.47 c 3.99,38.78 38.98,67.25 77.76,63.26 l 308.59,-31.74 c 38.79,-3.98 67.25,-38.98 63.26,-77.76 l -1.69,-16.47 c -3.99,-38.79 -38.99,-67.25 -77.77,-63.27" /><path
         id="path136"
         style="fill:#587bc9;fill-opacity:1;fill-rule:nonzero;stroke:none"
         d="m 2792.28,3262.19 -308.58,31.74 c -38.78,3.99 -67.25,38.98 -63.27,77.76 l 1.7,16.48 c 3.99,38.78 38.98,67.25 77.77,63.26 l 308.58,-31.74 c 38.78,-3.99 67.25,-38.98 63.26,-77.77 l -1.69,-16.47 c -3.99,-38.78 -38.98,-67.25 -77.77,-63.26" /><path
         id="path138"
         style="fill:#587bc9;fill-opacity:1;fill-rule:nonzero;stroke:none"
         d="m 2771.65,3061.62 -308.58,31.74 c -38.78,3.98 -67.25,38.98 -63.26,77.76 l 1.69,16.47 c 3.99,38.79 38.98,67.25 77.77,63.26 l 308.58,-31.73 c 38.78,-3.99 67.25,-38.99 63.26,-77.77 l -1.69,-16.47 c -3.99,-38.78 -38.98,-67.25 -77.77,-63.26" /><path
         id="path140"
         style="fill:#587bc9;fill-opacity:1;fill-rule:nonzero;stroke:none"
         d="m 2735.99,2714.85 -308.59,31.74 c -38.78,3.98 -67.24,38.98 -63.25,77.76 l 1.68,16.48 c 3.99,38.78 38.99,67.24 77.77,63.25 l 308.59,-31.73 c 38.78,-3.99 67.25,-38.99 63.26,-77.77 l -1.7,-16.47 c -3.99,-38.78 -38.98,-67.25 -77.76,-63.26" /><path
         id="path142"
         style="fill:#587bc9;fill-opacity:1;fill-rule:nonzero;stroke:none"
         d="m 2715.61,2516.7 -308.58,31.74 c -38.79,3.99 -67.25,38.98 -63.27,77.76 l 1.7,16.48 c 3.99,38.78 38.98,67.24 77.76,63.26 l 308.59,-31.74 c 38.78,-3.99 67.25,-38.99 63.26,-77.76 l -1.69,-16.48 c -3.99,-38.78 -38.99,-67.25 -77.77,-63.26" /><path
         id="path144"
         style="fill:#587bc9;fill-opacity:1;fill-rule:nonzero;stroke:none"
         d="m 3341,3205.76 -308.59,31.73 c -38.78,3.99 -67.25,38.99 -63.26,77.77 l 1.7,16.47 c 3.99,38.78 38.98,67.25 77.76,63.26 l 308.59,-31.74 c 38.78,-3.98 67.25,-38.98 63.26,-77.76 l -1.69,-16.47 c -3.99,-38.79 -38.99,-67.25 -77.77,-63.26" /><path
         id="path146"
         style="fill:#587bc9;fill-opacity:1;fill-rule:nonzero;stroke:none"
         d="m 3304.9,2854.69 -308.59,31.73 c -38.78,3.99 -67.25,38.99 -63.26,77.77 l 1.69,16.47 c 3.99,38.78 38.98,67.25 77.77,63.26 l 308.58,-31.74 c 38.79,-3.99 67.25,-38.98 63.26,-77.76 l -1.69,-16.47 c -3.99,-38.79 -38.99,-67.25 -77.76,-63.26" /><path
         id="path148"
         style="fill:#587bc9;fill-opacity:1;fill-rule:nonzero;stroke:none"
         d="m 3284.71,2658.41 -308.59,31.74 c -38.78,3.99 -67.25,38.99 -63.26,77.77 l 1.69,16.47 c 3.99,38.78 38.99,67.25 77.77,63.26 l 308.59,-31.74 c 38.78,-3.99 67.25,-38.98 63.26,-77.76 l -1.7,-16.48 c -3.99,-38.78 -38.98,-67.24 -77.76,-63.26" /><path
         id="path150"
         style="fill:#587bc9;fill-opacity:1;fill-rule:nonzero;stroke:none"
         d="M 3264.33,2460.27 2955.74,2492 c -38.78,3.99 -67.25,38.99 -63.26,77.77 l 1.7,16.47 c 3.98,38.78 38.98,67.25 77.76,63.26 l 308.58,-31.74 c 38.79,-3.99 67.26,-38.98 63.27,-77.76 l -1.7,-16.47 c -3.99,-38.79 -38.98,-67.25 -77.76,-63.26" /><path
         id="path152"
         style="fill:#eac1a4;fill-opacity:1;fill-rule:nonzero;stroke:none"
         d="m 3470.34,3436.5 -49.99,43.71 -81.39,-48.58 4.67,-125.74 75.98,-28.64 50.73,159.25" /><path
         id="path154"
         style="fill:#eac1a4;fill-opacity:1;fill-rule:nonzero;stroke:none"
         d="m 7900.59,3241.23 c 0,0 -62.8,-14.5 -63.8,-14.73 -23.29,-5.37 -100.59,-91.49 -116.67,-110.9 -9.18,-11.08 97.02,-21.15 107.17,-19.31 17.32,3.15 48.3,36.31 64.52,47.2 l 34.57,-13.97 29.31,37.83 -55.1,73.88" /><path
         id="path156"
         style="fill:#202b38;fill-opacity:1;fill-rule:nonzero;stroke:none"
         d="m 9457.95,880.059 9.02,-70.079 -131.15,-88.101 -79.08,61.07 61.06,79.09 131.14,88.09 9.01,-70.07" /><path
         id="path158"
         style="fill:#3b455a;fill-opacity:1;fill-rule:nonzero;stroke:none"
         d="m 9462.39,903.578 -101.14,893.712 121.69,1000.51 -27.37,212.83 -543.51,20.65 -19.62,-346.4 91.24,-888.96 343.28,-938.01 135.43,45.668" /><path
         id="path160"
         style="fill:#587bc9;fill-opacity:1;fill-rule:nonzero;stroke:none"
         d="m 8825.51,4000.7 -244.29,-143.55 -154.64,-269 -549.52,-332.83 80.85,-128.42 473.7,157.85 242.21,124.98 151.69,590.97" /><path
         id="path162"
         style="fill:#3b455a;fill-opacity:1;fill-rule:nonzero;stroke:none"
         d="m 8513.24,2931.12 -1.43,-901.87 181.54,-1161 130.67,1.301 71.82,1073.659 168.1,1074.62 -550.7,-86.71" /><path
         id="path164"
         style="fill:#3b455a;fill-opacity:1;fill-rule:nonzero;stroke:none"
         d="m 8823.81,814.449 -140.59,-72.058 -71.36,69.937 69.95,71.363 141.3,1.411 0.7,-70.653" /><path
         id="path166"
         style="fill:#587bc9;fill-opacity:1;fill-rule:nonzero;stroke:none"
         d="m 9539.18,2624.39 c -1.24,39.09 -3.42,71.7 -3.73,83.35 -2.8,104.84 -12.14,209.45 -25.27,313.54 -11.75,93.28 -26.6,324.86 -42.57,417.57 -13.18,76.55 -59.11,267.61 -92.3,338.6 -82.52,176.57 -57.02,192.88 -419.55,245.3 -158.88,22.98 -196.44,-76.04 -326.33,-189.9 -12.81,-11.23 -12.1,-78.1 -15.08,-95.8 -5.23,-31.19 -10.84,-62.32 -17.27,-93.3 -5.05,-24.35 -10.63,-48.63 -16.88,-72.75 l 0.01,0.01 c 0,0 -109.05,-496.24 -181.16,-601.64 -72.11,-105.39 -221.09,-252.73 28.12,-342.7 44.16,-14.27 88.6,-27.86 134.57,-35.12 0,0 203.81,22.65 308.62,21.87 96.54,-0.72 193.47,-10.49 288.37,-26.86 63.46,-10.61 128.23,-26.02 184.99,-55.67 54.16,-28.29 93.26,-69.91 148.21,-99.21 5.2,-2.77 10.91,-5.64 16.82,-4.82 31.57,4.37 33.05,115.28 30.43,197.53" /><path
         id="path168"
         style="fill:#eac1a4;fill-opacity:1;fill-rule:nonzero;stroke:none"
         d="m 8969.34,4003.18 c 17.52,-10.44 60.3,-17.07 106.59,-3.04 9.33,2.83 16.12,11.07 16.76,20.8 1.8,27.3 1.76,54.72 -0.12,82.01 34.61,9.18 74.92,23.86 83.58,58.6 2.72,10.95 1.7,22.43 0.66,33.66 -4.3,46.43 -8.59,92.85 -12.89,139.27 -1.48,16.06 -3.1,32.6 -10.65,46.85 -13.23,25.01 -41.74,37.75 -69.15,44.77 -69.95,17.91 -148.45,8.66 -207.11,-33.45 -15.61,-11.2 -30.02,-25.02 -37.9,-42.55 -12.14,-27.02 -7.13,-58.29 -1.88,-87.45 4.84,-26.92 9.68,-53.84 14.52,-80.75 5.57,-30.96 14.34,-66.35 42.66,-80.03 15.04,-7.27 33.5,-6.95 46.84,-17 23.53,-17.71 17.28,-54.29 28.09,-81.69" /><path
         id="path170"
         style="fill:#3b455a;fill-opacity:1;fill-rule:nonzero;stroke:none"
         d="m 8596.11,4492.28 c -6.06,11.99 -12.69,23.62 -20.27,34.63 -16.42,23.86 -37.31,44.85 -49.97,70.9 -12.67,26.04 -15.15,60.18 4.22,81.71 12.5,13.89 31.47,19.83 49.76,23.68 60.26,12.67 123.92,8.83 182.21,-11.02 55.53,-18.9 104.36,-46.79 163.08,-30 55.18,15.78 93.25,4.57 147.69,-19.85 58.91,-26.42 139.88,-37.95 192.34,-72.82 21.9,-14.56 38.61,-35.94 51.13,-59.07 43.34,-80.16 35.3,-185.34 -19.72,-257.98 -12.34,-16.3 -26.73,-30.95 -41.73,-44.84 -31.05,-28.76 -68.29,-64.36 -108.54,-72.74 1.85,35.26 42.67,143.7 17.93,174.68 -39.28,49.16 -137.52,40.86 -191.62,33.79 -59.01,-7.7 -113.99,-44.71 -172.23,-48.95 -41.9,-3.05 -93.14,21.43 -126.66,45.62 -41.36,29.86 -55.5,108.51 -77.62,152.26" /><path
         id="path172"
         style="fill:#587bc9;fill-opacity:1;fill-rule:nonzero;stroke:none"
         d="m 9245.33,3957.43 257.06,-66.01 -197.89,415.54 72.48,153.14 388.52,-609.24 -47.24,-237.78 -469.47,-82 -3.46,426.35" /><path
         id="path174"
         style="fill:#eac1a4;fill-opacity:1;fill-rule:nonzero;stroke:none"
         d="m 9369.51,4419.1 c -11.93,48.3 -29.61,95.19 -52.56,139.34 -7.47,14.35 -18.89,30.41 -35.03,29.42 -18.52,-1.13 -27.23,-23.32 -29.55,-41.73 -4.38,-34.69 -1.65,-70.26 7.95,-103.88 -3.96,-6.94 -13.86,5.24 -21.66,3.46 -3.56,-0.82 -5.66,-4.53 -6.63,-8.06 -13.27,-48.26 49.1,-81.71 77.48,-105.35 25.35,30.31 33.69,65.56 67.47,90.02 l -7.47,-3.22" /><path
         id="path176"
         style="fill:#ffffff;fill-opacity:1;fill-rule:nonzero;stroke:none"
         d="m 7264.14,2320.61 h -785.58 v 785.59 h 785.58 v -785.59" /><path
         id="path178"
         style="fill:#305399;fill-opacity:1;fill-rule:nonzero;stroke:none"
         d="m 6492.4,2334.45 h 757.9 v 757.91 h -757.9 z m 785.59,-27.68 h -813.28 v 813.26 h 813.28 v -813.26" /><path
         id="path180"
         style="fill:#ffffff;fill-opacity:1;fill-rule:nonzero;stroke:none"
         d="m 8049.73,2320.61 h -785.59 v 785.59 h 785.59 v -785.59" /><path
         id="path182"
         style="fill:#305399;fill-opacity:1;fill-rule:nonzero;stroke:none"
         d="m 7277.99,2334.45 h 757.9 v 757.91 h -757.9 z m 785.58,-27.68 H 7250.3 v 813.26 h 813.27 v -813.26" /><path
         id="path184"
         style="fill:#ffffff;fill-opacity:1;fill-rule:nonzero;stroke:none"
         d="m 8835.31,2320.61 h -785.58 v 785.59 h 785.58 v -785.59" /><path
         id="path186"
         style="fill:#305399;fill-opacity:1;fill-rule:nonzero;stroke:none"
         d="m 8063.57,2334.45 h 757.9 v 757.91 h -757.9 z m 785.59,-27.68 h -813.27 v 813.26 h 813.27 v -813.26" /><path
         id="path188"
         style="fill:#ffffff;fill-opacity:1;fill-rule:nonzero;stroke:none"
         d="m 7264.14,1535.02 h -785.58 v 785.59 h 785.58 v -785.59" /><path
         id="path190"
         style="fill:#305399;fill-opacity:1;fill-rule:nonzero;stroke:none"
         d="m 6492.4,1548.86 h 757.9 v 757.91 h -757.9 z m 785.59,-27.68 h -813.28 v 813.27 h 813.28 v -813.27" /><path
         id="path192"
         style="fill:#ffffff;fill-opacity:1;fill-rule:nonzero;stroke:none"
         d="m 8049.73,1535.02 h -785.59 v 785.59 h 785.59 v -785.59" /><path
         id="path194"
         style="fill:#305399;fill-opacity:1;fill-rule:nonzero;stroke:none"
         d="m 7277.99,1548.86 h 757.9 v 757.91 h -757.9 z m 785.58,-27.68 H 7250.3 v 813.27 h 813.27 v -813.27" /><path
         id="path196"
         style="fill:#ffffff;fill-opacity:1;fill-rule:nonzero;stroke:none"
         d="m 8835.31,1535.02 h -785.58 v 785.59 h 785.58 v -785.59" /><path
         id="path198"
         style="fill:#305399;fill-opacity:1;fill-rule:nonzero;stroke:none"
         d="m 8063.57,1548.86 h 757.9 v 757.91 h -757.9 z m 785.59,-27.68 h -813.27 v 813.27 h 813.27 v -813.27" /><path
         id="path200"
         style="fill:#ffffff;fill-opacity:1;fill-rule:nonzero;stroke:none"
         d="m 7264.14,749.441 h -785.58 v 785.579 h 785.58 V 749.441" /><path
         id="path202"
         style="fill:#305399;fill-opacity:1;fill-rule:nonzero;stroke:none"
         d="m 6492.4,763.281 h 757.9 v 757.899 h -757.9 z m 785.59,-27.679 h -813.28 v 813.258 h 813.28 V 735.602" /><path
         id="path204"
         style="fill:#ffffff;fill-opacity:1;fill-rule:nonzero;stroke:none"
         d="m 8049.73,749.441 h -785.59 v 785.579 h 785.59 V 749.441" /><path
         id="path206"
         style="fill:#305399;fill-opacity:1;fill-rule:nonzero;stroke:none"
         d="m 7277.99,763.281 h 757.9 v 757.899 h -757.9 z m 785.58,-27.679 H 7250.3 v 813.258 h 813.27 V 735.602" /><path
         id="path208"
         style="fill:#ffffff;fill-opacity:1;fill-rule:nonzero;stroke:none"
         d="m 8835.31,749.441 h -785.58 v 785.579 h 785.58 V 749.441" /><path
         id="path210"
         style="fill:#305399;fill-opacity:1;fill-rule:nonzero;stroke:none"
         d="m 8063.57,763.281 h 757.9 v 757.899 h -757.9 z m 785.59,-27.679 h -813.27 v 813.258 h 813.27 V 735.602" /><path
         id="path212"
         style="fill:#3b455a;fill-opacity:1;fill-rule:nonzero;stroke:none"
         d="m 8587.88,2563.67 v -70.84 h -277.11 v 65.18 l 134.31,142.81 c 27.94,30.22 41.93,57.8 41.93,82.73 0,15.88 -4.63,27.87 -13.88,35.99 -9.27,8.12 -22.77,12.18 -40.52,12.18 -34.38,0 -70.08,-13.03 -107.11,-39.1 l -28.33,63.47 c 16.24,13.98 37.02,25.03 62.33,33.16 25.31,8.12 51.01,12.18 77.07,12.18 41.94,0 75.28,-10.11 100.03,-30.32 24.74,-20.21 37.11,-47.32 37.11,-81.32 0,-23.43 -4.81,-45.05 -14.44,-64.89 -9.64,-19.83 -25.79,-41.85 -48.46,-66.02 l -91.24,-95.21 h 168.31" /><path
         id="path214"
         style="fill:#3b455a;fill-opacity:1;fill-rule:nonzero;stroke:none"
         d="m 8605.55,1083.94 c 12.66,-16.82 18.98,-37.51 18.98,-62.06 0,-35.521 -13.41,-63.47 -40.23,-83.868 -26.84,-20.403 -63.29,-30.602 -109.39,-30.602 -27.96,0 -54.77,4.059 -80.46,12.18 -25.7,8.121 -46.47,19.172 -62.34,33.148 l 28.34,63.472 c 35.88,-26.058 72.72,-39.101 110.5,-39.101 24.56,0 42.41,4.25 53.55,12.75 11.15,8.5 16.73,22.011 16.73,40.521 0,17.76 -5.58,30.7 -16.73,38.82 -11.14,8.12 -28.99,12.19 -53.55,12.19 h -57.8 v 69.13 h 48.18 c 23.41,0 40.79,4.06 52.13,12.19 11.33,8.12 17,20.49 17,37.12 0,16.62 -5.01,29.27 -15.02,37.97 -10.02,8.68 -24.28,13.03 -42.78,13.03 -17.39,0 -35.15,-3.31 -53.27,-9.92 -18.15,-6.61 -35.91,-16.34 -53.28,-29.18 l -28.33,63.47 c 16.24,13.97 37.02,25.02 62.33,33.15 25.31,8.12 51.38,12.18 78.22,12.18 27.19,0 51.09,-4.53 71.68,-13.59 20.59,-9.07 36.46,-21.73 47.6,-37.98 11.15,-16.25 16.72,-35.32 16.72,-57.23 0,-21.92 -5.48,-40.9 -16.43,-56.95 -10.96,-16.07 -26.45,-27.87 -46.48,-35.42 23.43,-6.81 41.46,-18.62 54.13,-35.42" /><path
         id="path216"
         style="fill:#3b455a;fill-opacity:1;fill-rule:nonzero;stroke:none"
         d="m 7754.24,2758.29 c 19.46,-10.77 34.57,-25.98 45.33,-45.62 10.77,-19.65 16.16,-42.32 16.16,-68.01 0,-27.2 -6.33,-51.1 -18.99,-71.68 -12.66,-20.6 -30.8,-36.47 -54.4,-47.6 -23.62,-11.15 -51.1,-16.73 -82.45,-16.73 -25.71,0 -51.1,4.16 -76.23,12.48 -25.13,8.3 -45.43,19.26 -60.92,32.86 l 28.33,63.47 c 35.89,-26.07 72.55,-39.1 109.95,-39.1 47.22,0 70.84,20.97 70.84,62.9 0,20.02 -6.15,35.8 -18.42,47.32 -12.29,11.52 -29,17.29 -50.15,17.29 -13.23,0 -26.55,-2.46 -39.96,-7.37 -13.41,-4.91 -25.41,-11.71 -35.98,-20.4 h -50.44 v 238.58 h 258.98 v -68 h -172.84 v -90.1 c 17.75,10.57 39.29,15.86 64.6,15.86 24.94,0 47.13,-5.38 66.59,-16.15" /><path
         id="path218"
         style="fill:#3b455a;fill-opacity:1;fill-rule:nonzero;stroke:none"
         d="m 7707.95,993.832 c 10.75,11.698 16.14,27.208 16.14,46.468 0,20.02 -5.29,35.79 -15.87,47.32 -10.58,11.52 -25.13,17.29 -43.63,17.29 -18.14,0 -32.78,-5.95 -43.92,-17.85 -11.16,-11.9 -16.73,-27.49 -16.73,-46.76 0,-18.9 5.67,-34.28 17,-46.179 11.34,-11.91 25.88,-17.859 43.65,-17.859 18.13,0 32.59,5.859 43.36,17.57 z m 40.8,164.068 c 18.69,-11.15 33.23,-26.64 43.63,-46.48 10.38,-19.83 15.58,-42.41 15.58,-67.72 0,-26.07 -5.94,-49.501 -17.85,-70.27 -11.9,-20.778 -28.34,-37.028 -49.3,-48.739 -20.96,-11.711 -44.68,-17.57 -71.12,-17.57 -52.51,0 -92.94,17.379 -121.27,52.141 -28.34,34.758 -42.51,84.248 -42.51,148.478 0,44.21 6.8,82.26 20.4,114.19 13.6,31.92 33.05,56.39 58.38,73.39 25.29,17 55.53,25.5 90.67,25.5 24.93,0 49.11,-3.96 72.53,-11.9 23.43,-7.94 43.44,-19.08 60.07,-33.44 l -28.9,-63.47 c -34,26.07 -67.25,39.11 -99.74,39.11 -26.45,0 -47.04,-10.68 -61.77,-32.02 -14.74,-21.35 -22.86,-52.62 -24.36,-93.79 8.68,15.1 21.25,27.1 37.67,35.98 16.44,8.88 34.66,13.32 54.69,13.32 23.43,0 44.49,-5.58 63.2,-16.71" /><path
         id="path220"
         style="fill:#3b455a;fill-opacity:1;fill-rule:nonzero;stroke:none"
         d="m 7523.44,2117.27 h 289.59 v -65.74 l -179.64,-337.76 h -94.65 l 179.08,332.66 h -194.38 v 70.84" /><path
         id="path222"
         style="fill:#3b455a;fill-opacity:1;fill-rule:nonzero;stroke:none"
         d="m 6812.84,1239.49 c -11.14,-8.69 -16.71,-21.34 -16.71,-37.96 0,-15.87 5.57,-28.62 16.71,-38.25 11.15,-9.64 26.17,-16.35 45.07,-20.12 18.88,3.77 33.9,10.48 45.05,20.12 11.14,9.63 16.72,22.38 16.72,38.25 0,16.62 -5.58,29.27 -16.72,37.96 -11.15,8.69 -26.17,13.04 -45.05,13.04 -18.9,0 -33.92,-4.35 -45.07,-13.04 z m 98.05,-250.478 c 13.03,9.07 19.55,22.288 19.55,39.668 0,16.24 -6.52,29.47 -19.55,39.67 -13.04,10.2 -30.7,17 -52.98,20.4 -22.3,-3.4 -39.96,-10.2 -52.99,-20.4 -13.04,-10.2 -19.56,-23.43 -19.56,-39.67 0,-17.38 6.52,-30.598 19.56,-39.668 13.03,-9.063 30.69,-13.59 52.99,-13.59 22.28,0 39.94,4.527 52.98,13.59 z m 80.19,95.208 c 14.35,-17 21.53,-37.79 21.53,-62.34 0,-23.431 -6.52,-43.739 -19.55,-60.919 -13.03,-17.199 -31.26,-30.422 -54.68,-39.672 -23.43,-9.258 -50.25,-13.879 -80.47,-13.879 -30.24,0 -57.06,4.621 -80.49,13.879 -23.42,9.25 -41.65,22.473 -54.67,39.672 -13.05,17.18 -19.56,37.488 -19.56,60.919 0,24.55 7.27,45.43 21.83,62.62 14.53,17.19 34.65,28.99 60.34,35.42 -22.67,7.55 -40.43,19.27 -53.26,35.14 -12.86,15.87 -19.27,34.57 -19.27,56.1 0,21.91 6.23,41.18 18.69,57.8 12.48,16.63 29.76,29.38 51.86,38.26 22.11,8.87 46.94,13.31 74.53,13.31 27.56,0 52.42,-4.44 74.51,-13.31 22.1,-8.88 39.39,-21.63 51.85,-38.26 12.48,-16.62 18.71,-35.89 18.71,-57.8 0,-21.91 -6.52,-41 -19.55,-57.24 -13.03,-16.24 -30.7,-27.57 -52.99,-34 26.07,-6.8 46.27,-18.7 60.64,-35.7" /><path
         id="path224"
         style="fill:#3b455a;fill-opacity:1;fill-rule:nonzero;stroke:none"
         d="m 6902.1,1796.91 h 87.27 v -70.84 h -262.94 v 70.84 h 87.26 v 234.04 l -81.6,-48.16 v 77.63 l 118.44,69.14 h 51.57 v -332.65" /><path
         id="path226"
         style="fill:#d7e8f4;fill-opacity:1;fill-rule:nonzero;stroke:none"
         d="m 3007.7,5676.63 c -12.72,189.35 -175.5,332.77 -364.48,322.2 -0.16,5.97 -0.35,11.95 -0.76,17.96 -15.53,231.26 -215.6,406.14 -446.86,390.61 -125.83,-8.46 -234.89,-71.62 -305.74,-164.64 -76.41,76.14 -183.93,120.3 -300.01,112.5 -206.59,-13.89 -364.49,-187.02 -362.04,-391.56 -8.79,0.07 -17.62,-0.07 -26.54,-0.67 -190.67,-12.81 -334.848,-177.76 -322.036,-368.43 9.551,-142.2 103.774,-258.42 230.136,-303.05 -9.66,-39.33 -13.91,-80.68 -11.75,-123.19 11.88,-234.75 211.82,-415.41 446.56,-403.52 73.12,3.7 140.99,25.66 199.43,61.23 19.39,-10.95 32.08,-19.48 32.08,-19.48 55.19,-31.52 119.9,-47.76 188.06,-43.18 123.64,8.3 226.99,82.76 278.06,186.46 59.74,-32.05 128.88,-48.32 201.51,-43.45 206.04,13.85 361.85,192.1 348.01,398.15 -0.6,8.96 -1.63,17.79 -2.84,26.56 136.93,53.49 229.59,191.04 219.21,345.5" /><path
         id="path228"
         style="fill:#d7e8f4;fill-opacity:1;fill-rule:nonzero;stroke:none"
         d="m 1340.48,4558.87 c -4.21,83.09 59.74,153.86 142.84,158.06 83.09,4.21 153.85,-59.74 158.06,-142.83 4.21,-83.09 -59.74,-153.86 -142.83,-158.06 -83.09,-4.21 -153.86,59.74 -158.07,142.83" /><path
         id="path230"
         style="fill:#d7e8f4;fill-opacity:1;fill-rule:nonzero;stroke:none"
         d="m 1620.58,4294.41 c -2.95,58.23 41.87,107.83 100.1,110.78 58.24,2.94 107.84,-41.87 110.78,-100.1 2.95,-58.24 -41.87,-107.84 -100.1,-110.79 -58.23,-2.95 -107.83,41.87 -110.78,100.11" /><path
         id="path232"
         style="fill:#305399;fill-opacity:1;fill-rule:nonzero;stroke:none"
         d="m 1329.08,5532.21 119.5,-7.67 11.02,171.59 z m 311.01,-19.97 -5.95,-92.69 -74.31,4.77 -6.39,-99.58 -117.21,7.53 6.4,99.58 -229.04,14.71 5.71,88.86 273.41,340.88 95.76,-6.15 -22.68,-353.14 74.3,-4.77" /><path
         id="path234"
         style="fill:#305399;fill-opacity:1;fill-rule:nonzero;stroke:none"
         d="m 2161.41,5962.12 c -12.61,-13.81 -17.06,-31.56 -13.37,-53.24 3.52,-20.71 13.62,-36.1 30.29,-46.2 16.68,-10.1 37.77,-15.52 63.26,-16.24 23.81,9.11 41.92,21.2 54.32,36.25 12.4,15.04 16.85,32.91 13.32,53.62 -3.68,21.68 -13.78,36.95 -30.25,45.82 -16.46,8.86 -37.03,11.2 -61.67,7.01 -24.66,-4.19 -43.29,-13.21 -55.9,-27.02 z m 183.54,-305.04 c 14.98,14.72 20.55,33.42 16.7,56.09 -3.61,21.19 -15.05,37.01 -34.32,47.42 -19.27,10.42 -43.83,15.37 -73.66,14.86 -28.33,-9.39 -49.87,-22.18 -64.6,-38.38 -14.75,-16.21 -20.32,-34.92 -16.71,-56.1 3.86,-22.68 15.3,-38.48 34.32,-47.42 19.01,-8.94 43.07,-10.93 72.15,-5.98 29.08,4.95 51.12,14.78 66.12,29.51 z m 83.49,142.02 c 22.5,-19 36.48,-44.52 41.93,-76.56 5.2,-30.56 1.2,-58.51 -11.98,-83.82 -13.19,-25.33 -34.04,-46.63 -62.55,-63.9 -28.51,-17.28 -62.48,-29.27 -101.91,-35.98 -39.44,-6.71 -75.47,-6.64 -108.09,0.25 -32.61,6.87 -59.33,20.07 -80.15,39.61 -20.82,19.53 -33.84,44.58 -39.04,75.15 -5.45,32.03 -0.59,60.88 14.58,86.55 15.16,25.65 38.77,45.52 70.87,59.61 -31.25,4.82 -57.02,16.17 -77.29,34.02 -20.3,17.85 -32.82,40.82 -37.6,68.92 -4.87,28.59 -1.01,55.11 11.56,79.57 12.58,24.46 32.29,44.93 59.16,61.43 26.87,16.48 58.3,27.79 94.29,33.91 35.96,6.12 69.38,5.85 100.17,-0.83 30.81,-6.67 56.2,-19.47 76.15,-38.39 19.98,-18.93 32.38,-42.68 37.25,-71.27 4.86,-28.59 0.59,-54.94 -12.82,-79.02 -13.39,-24.09 -33.92,-42.8 -61.58,-56.13 35.52,-3.09 64.53,-14.13 87.05,-33.12" /><path
         id="path236"
         style="fill:#305399;fill-opacity:1;fill-rule:nonzero;stroke:none"
         d="m 2132.55,5167.62 23.37,-84.35 -329.97,-91.42 -21.5,77.61 112.82,214.35 c 23.31,45.21 30.86,82.67 22.64,112.36 -5.23,18.9 -14.71,31.64 -28.4,38.27 -13.71,6.61 -31.14,7 -52.27,1.14 -40.94,-11.34 -79.15,-38.64 -114.65,-81.89 l -54.67,66.22 c 14.73,22.01 35.83,42.02 63.29,60.05 27.46,18.02 56.72,31.33 87.76,39.93 49.93,13.84 92.97,12.8 129.1,-3.1 36.12,-15.91 59.81,-44.1 71.02,-84.59 7.73,-27.91 9.13,-55.24 4.21,-82.04 -4.94,-26.8 -16.91,-58.34 -35.92,-94.6 l -77.24,-143.46 200.41,55.52" /><path
         id="path238"
         style="fill:#305399;fill-opacity:1;fill-rule:nonzero;stroke:none"
         d="m 9183.04,5083.98 c -5.28,-21.01 -11.38,-38.26 -18.31,-51.76 -6.94,-13.51 -15.72,-23.56 -26.37,-30.14 -10.64,-6.58 -23.48,-10.02 -38.54,-10.32 -15.06,-0.3 -32.82,2.13 -53.31,7.28 -21.51,5.4 -38.7,11.76 -51.56,19.08 -12.87,7.32 -22.43,16.38 -28.69,27.23 -6.27,10.83 -9.26,23.83 -8.97,39.01 0.26,15.17 3.04,33.26 8.32,54.27 5.41,21.52 11.61,39.16 18.62,52.91 6.99,13.77 15.83,24.07 26.54,30.91 10.71,6.82 23.46,10.44 38.26,10.8 14.8,0.37 32.94,-2.15 54.45,-7.56 20.49,-5.15 37.29,-11.41 50.41,-18.8 13.13,-7.38 22.78,-16.62 28.99,-27.71 6.2,-11.08 9.12,-24.35 8.8,-39.78 -0.35,-15.43 -3.23,-33.9 -8.64,-55.42 z m 392.93,601.29 c -10.55,-42.01 -26.09,-78.4 -46.62,-109.18 -20.55,-30.78 -44.78,-55.72 -72.73,-74.84 -27.97,-19.11 -59.04,-32.27 -93.25,-39.46 -34.21,-7.21 -70.27,-8.21 -108.17,-3.04 l -43.81,-148.27 c -2.83,-9.09 -11.88,-14.17 -27.11,-15.24 -15.25,-1.07 -36.2,1.74 -62.82,8.43 -16.91,4.25 -31.02,8.22 -42.36,11.88 -11.32,3.67 -20.07,7.36 -26.2,11.08 -6.15,3.71 -10.31,7.76 -12.49,12.12 -2.17,4.36 -2.81,9.41 -1.89,15.18 l 38.65,183.06 c 3.61,16.53 7.73,29.64 12.35,39.38 4.62,9.73 10.4,16.99 17.33,21.79 6.92,4.79 14.77,7.31 23.54,7.56 8.78,0.24 18.8,-1.05 30.07,-3.88 l 10.76,-2.71 c 27.14,-6.82 51.66,-8.37 73.59,-4.61 21.9,3.75 41.06,11.19 57.48,22.31 16.39,11.12 29.99,25.67 40.79,43.66 10.77,17.98 18.93,37.99 24.46,60.01 6.18,24.6 8.39,47.99 6.63,70.23 -1.76,22.21 -7.82,42.52 -18.18,60.93 -10.36,18.39 -25.17,34.23 -44.41,47.51 -19.27,13.28 -43.25,23.54 -71.92,30.74 -26.12,6.57 -49.82,9.79 -71.07,9.7 -21.28,-0.1 -39.86,-1.42 -55.75,-3.97 -15.88,-2.54 -29.21,-5.18 -39.97,-7.91 -10.77,-2.74 -18.71,-3.47 -23.83,-2.18 -3.59,0.9 -6.62,2.89 -9.12,5.96 -2.49,3.08 -3.99,7.95 -4.49,14.61 -0.51,6.67 0.01,15.78 1.57,27.38 1.55,11.59 4.53,26.09 8.9,43.5 4.51,17.93 8.56,30.8 12.14,38.62 3.61,7.79 8.6,13.62 15.03,17.45 6.39,3.84 17.64,7.42 33.73,10.73 16.06,3.31 34.85,5.39 56.31,6.27 21.45,0.86 44.98,0.25 70.61,-1.83 25.6,-2.08 51.74,-6.47 78.37,-13.16 60.44,-15.19 110.09,-36.53 148.92,-63.98 38.85,-27.47 68.43,-58.73 88.74,-93.79 20.32,-35.05 32.32,-72.38 35.98,-111.96 3.67,-39.6 0.42,-79.62 -9.76,-120.08" /></g></g></svg>